<svg width="120" height="260" viewBox="0 0 120 260" fill="none" xmlns="http://www.w3.org/2000/svg">
<g clip-path="url(#clip0_129_1363)">
<path d="M62.9996 208C62.9996 208 177.58 68.6 25.1396 5.31" stroke="#DF422C" stroke-width="2" stroke-miterlimit="10" stroke-linecap="round"/>
<path d="M33.05 0.539993L27.41 6.27999L27.62 14.32L14 0.999993L33.05 0.539993Z" fill="#DF422C"/>
</g>
<path d="M3.60968 192.208L10.8016 183.336L17.0093 186.92L16.1571 187.98L11.3905 185.228L9.07785 188.049L13.5673 190.641L12.7152 191.701L8.22571 189.109L5.05075 193.04L3.60968 192.208ZM17.1432 188.918L18.2188 187.599L19.84 188.535L18.7644 189.854L17.1432 188.918ZM11.1158 196.542L16.0868 190.396L17.4863 191.204L12.5153 197.35L11.1158 196.542ZM20.5403 190.88L21.6159 189.561L23.2371 190.497L22.1615 191.816L20.5403 190.88ZM11.029 200.058L11.5539 198.957L12.2094 199.261C12.6319 199.468 13.0233 199.516 13.3837 199.403C13.748 199.306 14.095 199.057 14.4249 198.656L19.5116 192.373L20.9111 193.181L15.9023 199.361C15.5923 199.749 15.2774 200.059 14.9575 200.293C14.6376 200.528 14.3081 200.682 13.9691 200.757C13.6339 200.847 13.2773 200.857 12.8992 200.786C12.5158 200.725 12.1037 200.586 11.6627 200.368L11.029 200.058ZM20.0957 201.893C19.6984 201.664 19.3796 201.362 19.1391 200.99C18.904 200.608 18.7728 200.205 18.7456 199.783C18.7237 199.352 18.8248 198.942 19.0488 198.554C19.3261 198.074 19.6794 197.76 20.1088 197.614C20.5473 197.473 21.0883 197.496 21.7318 197.683C22.3807 197.86 23.1485 198.205 24.0353 198.717L25.1438 199.357L24.5231 200.144L23.664 199.648C23.0266 199.28 22.4999 199.019 22.0838 198.865C21.677 198.717 21.347 198.68 21.094 198.756C20.8463 198.822 20.6424 198.994 20.4824 199.271C20.2691 199.64 20.2265 199.992 20.3547 200.324C20.4921 200.662 20.7317 200.93 21.0735 201.127C21.3876 201.309 21.7186 201.407 22.0664 201.423C22.4143 201.439 22.7553 201.372 23.0894 201.22C23.4381 201.064 23.7468 200.817 24.0155 200.479L25.2388 198.969C25.6046 198.527 25.7513 198.113 25.679 197.726C25.6158 197.345 25.3071 196.994 24.7529 196.674C24.3372 196.434 23.908 196.26 23.4652 196.153C23.0225 196.045 22.5444 196.009 22.0309 196.045L22.2604 194.847C22.5728 194.818 22.9161 194.832 23.2903 194.888C23.6737 194.949 24.0549 195.046 24.4341 195.179C24.8224 195.317 25.1921 195.487 25.5432 195.69C26.2175 196.079 26.6767 196.51 26.9206 196.984C27.1739 197.462 27.2417 197.963 27.1243 198.487C27.0161 199.016 26.7478 199.544 26.3194 200.073L23.4239 203.648L22.1076 202.888L23.1853 201.534L23.3238 201.614C22.9957 201.904 22.635 202.103 22.2416 202.208C21.8627 202.31 21.4889 202.328 21.12 202.263C20.7604 202.203 20.419 202.08 20.0957 201.893ZM28.2447 206.598C27.6905 206.278 27.2899 205.905 27.0431 205.479C26.8055 205.059 26.7221 204.616 26.793 204.152C26.8731 203.693 27.1014 203.234 27.4779 202.774L29.8924 199.808L28.576 199.048L29.3663 198.063L30.6827 198.823L32.1774 196.97L33.5769 197.778L32.0822 199.631L34.1745 200.839L33.3842 201.824L31.2919 200.616L28.9552 203.479C28.5681 203.958 28.4048 204.368 28.4655 204.711C28.5354 205.06 28.7828 205.356 29.2077 205.602C29.3648 205.692 29.5159 205.761 29.6613 205.808C29.8212 205.851 29.9672 205.886 30.0994 205.913L29.5942 207.044C29.413 207.038 29.1936 206.992 28.936 206.904C28.6876 206.823 28.4572 206.72 28.2447 206.598ZM33.6259 209.705C32.9608 209.321 32.4528 208.867 32.1018 208.344C31.7655 207.818 31.594 207.251 31.5875 206.643C31.5902 206.041 31.7702 205.431 32.1275 204.812C32.5542 204.073 33.0932 203.491 33.7448 203.067C34.3963 202.642 35.0985 202.407 35.8515 202.362C36.6138 202.321 37.3598 202.512 38.0896 202.933C38.8101 203.349 39.2822 203.843 39.5059 204.416C39.7442 204.985 39.7872 205.582 39.6349 206.209C39.4879 206.826 39.1969 207.415 38.7617 207.977L38.5282 208.286L33.332 205.286L33.9389 204.49L38.1928 206.946L37.8314 206.996C38.1307 206.627 38.3275 206.254 38.4218 205.878C38.5253 205.506 38.5084 205.152 38.371 204.814C38.2389 204.467 37.9511 204.165 37.5077 203.909C37.0551 203.648 36.6104 203.533 36.1736 203.564C35.7515 203.591 35.3593 203.716 34.9971 203.938C34.6442 204.165 34.3314 204.44 34.0587 204.763L33.7873 205.105C33.4161 205.556 33.1912 205.999 33.1126 206.434C33.0431 206.874 33.1114 207.289 33.3174 207.679C33.5234 208.069 33.8665 208.402 34.3469 208.68C34.7626 208.92 35.1852 209.084 35.6148 209.172C36.0537 209.265 36.4956 209.267 36.9405 209.18L36.7845 210.346C36.3051 210.451 35.7798 210.443 35.2088 210.323C34.6524 210.199 34.1247 209.993 33.6259 209.705ZM44.5559 216.015C43.8631 215.615 43.3577 215.157 43.0398 214.641C42.7365 214.121 42.6001 213.568 42.6305 212.982C42.6754 212.392 42.8712 211.797 43.2179 211.196C43.5059 210.698 43.8598 210.255 44.2796 209.87C44.7048 209.474 45.1718 209.178 45.6807 208.979C46.2042 208.776 46.7655 208.7 47.3647 208.75C47.9691 208.791 48.59 208.996 49.2274 209.364C49.6801 209.625 50.067 209.947 50.3881 210.329C50.7145 210.703 50.9331 211.081 51.0439 211.465L50.0186 212.185C49.9196 211.845 49.7543 211.534 49.5227 211.252C49.2964 210.962 49.0077 210.715 48.6567 210.512C48.2318 210.267 47.8235 210.142 47.4319 210.138C47.0456 210.124 46.6728 210.204 46.3135 210.379C45.9688 210.549 45.6588 210.777 45.3837 211.061C45.1085 211.346 44.8696 211.664 44.667 212.015C44.3256 212.606 44.1922 213.157 44.2667 213.668C44.3504 214.184 44.7202 214.632 45.376 215.01C45.6439 215.165 45.9596 215.28 46.3231 215.354C46.692 215.419 47.0697 215.416 47.4564 215.343L47.2326 216.563C46.9664 216.618 46.6694 216.632 46.3414 216.602C46.028 216.569 45.7167 216.5 45.4076 216.396C45.0984 216.291 44.8145 216.164 44.5559 216.015ZM50.2065 219.277C49.7261 219 49.3711 218.666 49.1413 218.274C48.9261 217.879 48.8692 217.434 48.9706 216.938C49.0774 216.433 49.3682 215.887 49.8432 215.299L52.8246 211.607L54.2241 212.415L51.2427 216.107C50.9593 216.448 50.7707 216.764 50.6768 217.055C50.5975 217.341 50.6128 217.603 50.7229 217.839C50.8476 218.071 51.0577 218.272 51.3533 218.443C51.7505 218.672 52.143 218.782 52.5307 218.772C52.9184 218.762 53.2953 218.653 53.6614 218.445C54.042 218.234 54.3874 217.935 54.6974 217.547L57.3695 214.231L58.769 215.039L53.798 221.185L52.4401 220.401L53.5018 219.074L53.6404 219.154C53.1214 219.519 52.5649 219.715 51.9707 219.742C51.3765 219.768 50.7885 219.613 50.2065 219.277ZM57.9707 223.76C57.5735 223.531 57.2547 223.23 57.0142 222.857C56.7791 222.475 56.6479 222.073 56.6207 221.65C56.5988 221.219 56.6999 220.809 56.9239 220.421C57.2012 219.941 57.5545 219.628 57.9838 219.481C58.4224 219.34 58.9634 219.363 59.6069 219.55C60.2557 219.728 61.0236 220.072 61.9104 220.584L63.0189 221.224L62.3982 222.012L61.5391 221.516C60.9017 221.148 60.3749 220.887 59.9589 220.733C59.552 220.584 59.2221 220.547 58.9691 220.623C58.7213 220.689 58.5175 220.861 58.3575 221.138C58.1442 221.508 58.1016 221.859 58.2298 222.191C58.3672 222.529 58.6068 222.797 58.9486 222.994C59.2626 223.176 59.5936 223.274 59.9415 223.291C60.2894 223.307 60.6304 223.239 60.9645 223.087C61.3131 222.931 61.6219 222.684 61.8906 222.347L63.1139 220.836C63.4797 220.394 63.6264 219.98 63.554 219.593C63.4909 219.212 63.1822 218.862 62.628 218.542C62.2123 218.302 61.783 218.128 61.3403 218.02C60.8976 217.912 60.4194 217.876 59.9059 217.912L60.1355 216.715C60.4479 216.685 60.7912 216.699 61.1653 216.755C61.5488 216.816 61.93 216.913 62.3091 217.046C62.6975 217.184 63.0672 217.354 63.4182 217.557C64.0926 217.946 64.5517 218.377 64.7957 218.851C65.0489 219.33 65.1168 219.831 64.9994 220.354C64.8912 220.883 64.6229 221.411 64.1945 221.94L61.299 225.515L59.9826 224.755L61.0603 223.401L61.1989 223.481C60.8708 223.772 60.5101 223.97 60.1166 224.075C59.7378 224.177 59.364 224.195 58.9951 224.13C58.6355 224.07 58.294 223.947 57.9707 223.76ZM65.3716 228.033C64.6418 227.612 64.2326 227.104 64.1439 226.511C64.0699 225.914 64.3222 225.253 64.901 224.528L70.4046 217.747L71.8041 218.555L66.3085 225.322C66.1008 225.596 65.9641 225.844 65.8983 226.065C65.8378 226.276 65.8548 226.471 65.9493 226.648C66.053 226.831 66.2296 226.995 66.479 227.139C66.5806 227.198 66.6849 227.252 66.7918 227.301C66.9133 227.347 67.0349 227.392 67.1564 227.438L66.3085 228.426C66.1579 228.388 65.9987 228.333 65.831 228.261C65.6725 228.194 65.5194 228.118 65.3716 228.033ZM70.6755 231.095C70.0104 230.711 69.5024 230.258 69.1515 229.735C68.8151 229.208 68.6437 228.641 68.6371 228.034C68.6398 227.432 68.8198 226.821 69.1771 226.202C69.6038 225.463 70.1429 224.882 70.7944 224.457C71.4459 224.033 72.1482 223.798 72.9012 223.752C73.6635 223.712 74.4095 223.903 75.1392 224.324C75.8598 224.74 76.3319 225.234 76.5556 225.807C76.7938 226.375 76.8368 226.973 76.6845 227.599C76.5376 228.217 76.2465 228.806 75.8114 229.368L75.5778 229.676L70.3817 226.676L70.9885 225.881L75.2424 228.337L74.881 228.387C75.1803 228.018 75.3771 227.645 75.4714 227.268C75.575 226.897 75.558 226.542 75.4206 226.204C75.2885 225.857 75.0008 225.556 74.5574 225.3C74.1047 225.038 73.66 224.923 73.2233 224.954C72.8011 224.982 72.4089 225.106 72.0468 225.328C71.6938 225.555 71.381 225.831 71.1084 226.154L70.8369 226.496C70.4658 226.946 70.2409 227.389 70.1622 227.824C70.0928 228.265 70.161 228.68 70.367 229.07C70.573 229.459 70.9162 229.793 71.3965 230.07C71.8122 230.31 72.2349 230.474 72.6645 230.562C73.1033 230.655 73.5452 230.658 73.9901 230.57L73.8341 231.736C73.3547 231.841 72.8295 231.834 72.2585 231.713C71.702 231.589 71.1744 231.383 70.6755 231.095ZM77.4113 234.984C76.857 234.664 76.3751 234.293 75.9655 233.872C75.5705 233.447 75.286 233.012 75.112 232.567L76.133 231.918C76.2587 232.212 76.4142 232.487 76.5996 232.742C76.7904 232.987 77.0037 233.215 77.2396 233.425C77.4847 233.641 77.7412 233.826 78.0091 233.981C78.4802 234.253 78.8985 234.371 79.2638 234.335C79.6291 234.3 79.9024 234.125 80.0838 233.811C80.2064 233.599 80.2312 233.385 80.1581 233.17C80.0995 232.952 79.9549 232.733 79.7244 232.514L78.6037 231.479C78.182 231.1 77.918 230.682 77.8115 230.227C77.705 229.771 77.7798 229.322 78.0358 228.878C78.2705 228.472 78.592 228.171 79.0004 227.976C79.418 227.786 79.8999 227.719 80.446 227.776C81.0014 227.838 81.5794 228.042 82.1798 228.389C82.4754 228.559 82.7523 228.762 83.0106 228.998C83.2781 229.238 83.5065 229.493 83.6959 229.763C83.8852 230.032 84.0189 230.313 84.097 230.604L83.1256 231.263C82.9924 230.853 82.787 230.494 82.5092 230.186C82.2367 229.869 81.9065 229.598 81.5185 229.374C81.0382 229.097 80.6034 228.975 80.2143 229.009C79.8344 229.048 79.5511 229.23 79.3645 229.553C79.2525 229.747 79.2138 229.953 79.2486 230.17C79.2887 230.378 79.4267 230.587 79.6626 230.797L80.7832 231.832C81.2312 232.25 81.5111 232.683 81.6229 233.129C81.7492 233.572 81.6844 234.015 81.4284 234.458C81.1724 234.902 80.8356 235.218 80.418 235.408C80.0004 235.598 79.5311 235.654 79.0102 235.575C78.4985 235.501 77.9655 235.304 77.4113 234.984ZM87.763 240.961C87.2087 240.641 86.7268 240.27 86.3172 239.849C85.9222 239.424 85.6377 238.988 85.4637 238.543L86.4847 237.895C86.6104 238.189 86.7659 238.464 86.9514 238.718C87.1421 238.964 87.3554 239.192 87.5913 239.402C87.8364 239.617 88.0929 239.802 88.3608 239.957C88.832 240.229 89.2502 240.347 89.6155 240.312C89.9808 240.277 90.2541 240.102 90.4355 239.788C90.5581 239.575 90.5829 239.362 90.5098 239.147C90.4512 238.928 90.3066 238.71 90.0761 238.49L88.9554 237.455C88.5338 237.076 88.2697 236.659 88.1632 236.203C88.0568 235.748 88.1315 235.298 88.3875 234.855C88.6222 234.448 88.9437 234.148 89.3521 233.952C89.7697 233.762 90.2516 233.696 90.7977 233.752C91.3531 233.814 91.9311 234.019 92.5315 234.365C92.8271 234.536 93.1041 234.739 93.3623 234.974C93.6298 235.215 93.8582 235.47 94.0476 235.739C94.2369 236.009 94.3706 236.289 94.4487 236.581L93.4773 237.239C93.3441 236.83 93.1387 236.471 92.8609 236.163C92.5884 235.845 92.2582 235.575 91.8702 235.351C91.3899 235.073 90.9551 234.952 90.566 234.986C90.1861 235.025 89.9028 235.206 89.7162 235.53C89.6042 235.724 89.5655 235.929 89.6003 236.146C89.6404 236.354 89.7784 236.563 90.0143 236.773L91.1349 237.808C91.5829 238.227 91.8628 238.66 91.9746 239.106C92.1009 239.548 92.0361 239.991 91.7801 240.435C91.5241 240.878 91.1873 241.195 90.7697 241.385C90.3521 241.575 89.8828 241.63 89.3619 241.551C88.8502 241.477 88.3172 241.281 87.763 240.961ZM94.9874 245.132C94.35 244.764 93.8743 244.329 93.5603 243.827C93.2463 243.326 93.0953 242.777 93.1072 242.18C93.1284 241.589 93.3176 240.984 93.675 240.365C94.0163 239.774 94.4134 239.288 94.8662 238.909C95.3336 238.527 95.833 238.248 96.3643 238.075C96.9049 237.906 97.4529 237.853 98.0083 237.915C98.5637 237.977 99.1046 238.16 99.6312 238.464C100.269 238.832 100.742 239.272 101.05 239.782C101.364 240.284 101.511 240.83 101.489 241.422C101.483 242.009 101.301 242.612 100.944 243.231C100.602 243.822 100.198 244.309 99.7305 244.692C99.2723 245.081 98.7729 245.359 98.2324 245.527C97.7064 245.691 97.1657 245.743 96.6103 245.681C96.0549 245.619 95.5139 245.436 94.9874 245.132ZM95.6391 244.067C96.1194 244.344 96.5986 244.442 97.0766 244.361C97.5546 244.28 98.0047 244.065 98.427 243.718C98.8638 243.367 99.2396 242.919 99.5542 242.374C99.9062 241.764 100.025 241.217 99.9108 240.732C99.8019 240.238 99.4888 239.842 98.9715 239.543C98.5004 239.271 98.0212 239.173 97.534 239.249C97.0613 239.321 96.6066 239.532 96.1697 239.884C95.7474 240.231 95.3763 240.682 95.0563 241.236C94.7096 241.837 94.5908 242.384 94.6997 242.878C94.8087 243.372 95.1218 243.768 95.6391 244.067ZM99.7211 247.698L104.706 241.56L106.064 242.344L104.98 243.677L104.869 243.613C105.399 243.229 105.958 243.029 106.547 243.011C107.15 242.99 107.752 243.153 108.353 243.5C108.852 243.788 109.209 244.129 109.424 244.525C109.648 244.925 109.71 245.373 109.608 245.869C109.516 246.37 109.235 246.91 108.766 247.489L105.776 251.194L104.377 250.386L107.35 246.708C107.639 246.358 107.823 246.039 107.902 245.752C107.982 245.465 107.966 245.204 107.856 244.968C107.746 244.732 107.529 244.521 107.206 244.334C106.8 244.099 106.393 243.982 105.987 243.981C105.581 243.981 105.195 244.084 104.829 244.292C104.472 244.504 104.131 244.807 103.807 245.198L101.121 248.506L99.7211 247.698ZM109.968 249.956L114.703 243.323L116.421 244.315L110.827 250.452L109.968 249.956ZM107.552 252.22L108.768 250.723L110.417 251.675L109.201 253.172L107.552 252.22Z" fill="white"/>
<defs>
<clipPath id="clip0_129_1363">
<rect width="92" height="209" fill="white" transform="translate(14)"/>
</clipPath>
</defs>
</svg>
